<svg height="480pt" viewBox="0 0 480 480" width="480pt" xmlns="http://www.w3.org/2000/svg" xmlns:xlink="http://www.w3.org/1999/xlink"><linearGradient id="linear0" gradientUnits="userSpaceOnUse" x1="240" x2="240" y1="480" y2="0"><stop offset="0" stop-color="#12c2e9"/><stop offset=".056" stop-color="#19bfe9"/><stop offset=".137" stop-color="#2db6ea"/><stop offset=".235" stop-color="#4da7ea"/><stop offset=".344" stop-color="#7993eb"/><stop offset=".462" stop-color="#b279ed"/><stop offset=".497" stop-color="#c471ed"/><stop offset="1" stop-color="#f64f59"/></linearGradient><path d="m240 0c-132.546875 0-240 107.453125-240 240s107.453125 240 240 240 240-107.453125 240-240c-.148438-132.484375-107.515625-239.851562-240-240zm0 464c-123.710938 0-224-100.289062-224-224s100.289062-224 224-224 224 100.289062 224 224c-.140625 123.652344-100.347656 223.859375-224 224zm-98.550781-341.855469c-2.332031-2.167969-5.726563-2.746093-8.644531-1.476562-2.917969 1.269531-4.804688 4.148437-4.804688 7.332031v208c0 3.183594 1.886719 6.0625 4.804688 7.332031 2.917968 1.269531 6.3125.691407 8.644531-1.476562l112-104c1.625-1.511719 2.546875-3.632813 2.546875-5.855469s-.921875-4.34375-2.546875-5.855469zm2.550781 195.511719v-171.3125l92.238281 85.65625zm128-189.65625v208c0 4.417969-3.582031 8-8 8s-8-3.582031-8-8v-208c0-4.417969 3.582031-8 8-8s8 3.582031 8 8zm80 0v208c0 4.417969-3.582031 8-8 8s-8-3.582031-8-8v-208c0-4.417969 3.582031-8 8-8s8 3.582031 8 8zm0 0" fill="url(#linear0)"/></svg>