<svg height="480pt" viewBox="0 0 480 480" width="480pt" xmlns="http://www.w3.org/2000/svg"><path d="m432 240c0 106.039062-85.960938 192-192 192s-192-85.960938-192-192 85.960938-192 192-192 192 85.960938 192 192zm0 0" fill="#cfd2fc"/><path d="m240 480c-132.546875 0-240-107.453125-240-240s107.453125-240 240-240 240 107.453125 240 240c-.148438 132.484375-107.515625 239.851562-240 240zm0-464c-123.710938 0-224 100.289062-224 224s100.289062 224 224 224 224-100.289062 224-224c-.140625-123.652344-100.347656-223.859375-224-224zm0 0" fill="#8690fa"/><g fill="#5153ff"><path d="m320 336c-3.234375 0-6.152344-1.949219-7.390625-4.9375s-.550781-6.429688 1.734375-8.71875l32-32c3.140625-3.03125 8.128906-2.988281 11.214844.097656 3.085937 3.085938 3.128906 8.074219.097656 11.214844l-32 32c-1.5 1.5-3.535156 2.34375-5.65625 2.34375zm0 0"/><path d="m352 304c-2.121094 0-4.15625-.84375-5.65625-2.34375l-32-32c-3.03125-3.140625-2.988281-8.128906.097656-11.214844 3.085938-3.085937 8.074219-3.128906 11.214844-.097656l32 32c2.285156 2.289062 2.972656 5.730469 1.734375 8.71875s-4.15625 4.9375-7.390625 4.9375zm0 0"/><path d="m352 304h-64c-40.945312 0-57-32.105469-71.160156-60.425781-13.832032-27.679688-25.785156-51.574219-56.839844-51.574219h-32c-4.417969 0-8-3.582031-8-8s3.582031-8 8-8h32c40.945312 0 57 32.105469 71.199219 60.425781 13.792969 27.679688 25.746093 51.574219 56.800781 51.574219h64c4.417969 0 8 3.582031 8 8s-3.582031 8-8 8zm0 0"/><path d="m352 192c-2.121094 0-4.15625-.84375-5.65625-2.34375l-32-32c-3.03125-3.140625-2.988281-8.128906.097656-11.214844 3.085938-3.085937 8.074219-3.128906 11.214844-.097656l32 32c2.285156 2.289062 2.972656 5.730469 1.734375 8.71875s-4.15625 4.9375-7.390625 4.9375zm0 0"/><path d="m320 224c-3.234375 0-6.152344-1.949219-7.390625-4.9375s-.550781-6.429688 1.734375-8.71875l32-32c3.140625-3.03125 8.128906-2.988281 11.214844.097656 3.085937 3.085938 3.128906 8.074219.097656 11.214844l-32 32c-1.5 1.5-3.535156 2.34375-5.65625 2.34375zm0 0"/><path d="m160 304h-32c-4.417969 0-8-3.582031-8-8s3.582031-8 8-8h32c31.054688 0 43.007812-23.894531 56.839844-51.574219 14.160156-28.320312 30.214844-60.425781 71.160156-60.425781h64c4.417969 0 8 3.582031 8 8s-3.582031 8-8 8h-64c-31.054688 0-43.007812 23.894531-56.800781 51.574219-14.199219 28.320312-30.253907 60.425781-71.199219 60.425781zm0 0"/></g></svg>